<?xml version="1.0" encoding="utf-8"?>
<!-- Generator: Adobe Illustrator 22.0.1, SVG Export Plug-In . SVG Version: 6.00 Build 0)  -->
<svg version="1.1" id="Layer_1" xmlns="http://www.w3.org/2000/svg" xmlns:xlink="http://www.w3.org/1999/xlink" x="0px" y="0px"
	 viewBox="0 0 112 114" style="enable-background:new 0 0 112 114;" xml:space="preserve">
<g>
	<path d="M100.6,12.5c-3.7-3.7-8.1-5.5-13.3-5.5H24.7c-5.2,0-9.6,1.8-13.3,5.5C7.8,16.1,6,20.5,6,25.7v62.6c0,5.2,1.8,9.6,5.5,13.3
		c3.7,3.7,8.1,5.5,13.3,5.5h62.6c5.2,0,9.6-1.8,13.3-5.5c3.7-3.7,5.5-8.1,5.5-13.3V25.7C106.1,20.5,104.2,16.1,100.6,12.5
		L100.6,12.5z M89.4,88.3c0,0.6-0.2,1.1-0.6,1.5c-0.4,0.4-0.9,0.6-1.5,0.6H24.7c-0.6,0-1.1-0.2-1.5-0.6c-0.4-0.4-0.6-0.9-0.6-1.5
		V25.7c0-0.6,0.2-1.1,0.6-1.5c0.4-0.4,0.9-0.6,1.5-0.6h62.6c0.6,0,1.1,0.2,1.5,0.6c0.4,0.4,0.6,0.9,0.6,1.5L89.4,88.3L89.4,88.3z
		 M89.4,88.3"/>
	<path d="M59.4,37.9c-0.8-1.2-2-1.8-3.4-1.8c-1.4,0-2.6,0.6-3.4,1.8L31.8,67.1c-1,1.3-1.1,2.8-0.3,4.3c0.7,1.5,2,2.3,3.7,2.3h41.7
		c1.7,0,3-0.8,3.7-2.3c0.8-1.5,0.7-3-0.3-4.3L59.4,37.9z M59.4,37.9"/>
</g>
</svg>
